<svg width="42" height="59" viewBox="0 0 42 59" fill="none" xmlns="http://www.w3.org/2000/svg">
<path d="M41.8667 21.2045C40.0517 21.1608 38.265 20.7455 36.6169 19.9841C34.9687 19.2227 33.4942 18.1315 32.2844 16.7778C32.9338 19.5406 32.5566 22.4453 31.2232 24.9506C29.8897 27.4559 27.6909 29.391 25.0364 30.3953C22.382 31.3996 19.453 31.4046 16.7951 30.4094C14.1372 29.4142 11.9318 27.4867 10.5897 24.986C9.24767 22.4853 8.86053 19.5819 9.50044 16.8169C10.1403 14.0519 11.7636 11.6138 14.0679 9.95697C16.3721 8.30011 19.2001 7.53747 22.025 7.81114C24.8499 8.08482 27.4789 9.37614 29.4222 11.4445C28.6369 8.5956 28.831 5.56551 29.9733 2.84006C26.7903 1.30282 23.2693 0.598431 19.7399 0.792857C16.2105 0.987284 12.7881 2.07416 9.79327 3.95173C6.79839 5.8293 4.32895 8.43615 2.61615 11.5282C0.90335 14.6203 0.00320664 18.0964 0 21.6312C0 29.9334 4.65778 36.8845 8.07111 41.9512L8.69333 42.8756C12.0894 47.7976 15.7326 52.5444 19.6089 57.0978L20.96 58.6801L22.3111 57.0978C26.1869 52.544 29.8301 47.7972 33.2267 42.8756L33.8489 41.9334C37.2444 36.8667 41.9022 29.9334 41.9022 21.6312C41.8844 21.4889 41.8667 21.3467 41.8667 21.2045Z" fill="#073BA1"/>
</svg>
