<svg width="100" height="100" viewBox="0 0 100 100" fill="none" xmlns="http://www.w3.org/2000/svg">
<g clip-path="url(#clip0_685_5042)">
<circle cx="50" cy="50" r="50" fill="#EBF2FF"/>
<path d="M76.6668 58V63.3333H44.6668C44.6668 65.455 43.824 67.4899 42.3237 68.9901C40.8234 70.4904 38.7886 71.3333 36.6668 71.3333C34.5451 71.3333 32.5103 70.4904 31.01 68.9901C29.5097 67.4899 28.6668 65.455 28.6668 63.3333H23.3335V34C23.3335 32.5855 23.8954 31.2289 24.8956 30.2287C25.8958 29.2285 27.2523 28.6666 28.6668 28.6666H63.3335C64.748 28.6666 66.1045 29.2285 67.1047 30.2287C68.1049 31.2289 68.6668 32.5855 68.6668 34V58H76.6668ZM36.6668 60.6666C35.9596 60.6666 35.2813 60.9476 34.7812 61.4477C34.2811 61.9478 34.0002 62.626 34.0002 63.3333C34.0002 64.0405 34.2811 64.7188 34.7812 65.2189C35.2813 65.719 35.9596 66 36.6668 66C37.3741 66 38.0523 65.719 38.5524 65.2189C39.0525 64.7188 39.3335 64.0405 39.3335 63.3333C39.3335 62.626 39.0525 61.9478 38.5524 61.4477C38.0523 60.9476 37.3741 60.6666 36.6668 60.6666Z" fill="#073BA1"/>
<path fill-rule="evenodd" clip-rule="evenodd" d="M36 40H55.9661V41.8027H36V40ZM36 44.8078H55.9661V46.6106H36V44.8078ZM55.9661 49.6146H36V51.4174H55.9661V49.6146Z" fill="white"/>
</g>
<defs>
<clipPath id="clip0_685_5042">
<rect width="100" height="100" fill="white"/>
</clipPath>
</defs>
</svg>
